<mxfile host="app.diagrams.net" agent="Mozilla/5.0 (Windows NT 10.0; Win64; x64) AppleWebKit/537.36 (KHTML, like Gecko) Chrome/137.0.0.0 Safari/537.36" version="27.1.6" pages="3">
  <diagram name="use-cases" id="OTDSEAKqXFHnVf4DYOmP">
    <mxGraphModel dx="983" dy="518" grid="1" gridSize="10" guides="1" tooltips="1" connect="1" arrows="1" fold="1" page="1" pageScale="1" pageWidth="827" pageHeight="1169" math="0" shadow="0">
      <root>
        <mxCell id="0" />
        <mxCell id="1" parent="0" />
        <mxCell id="qaXm5NW-_RKSkuAVvWhl-8" style="edgeStyle=orthogonalEdgeStyle;rounded=0;orthogonalLoop=1;jettySize=auto;html=1;entryX=0;entryY=0.5;entryDx=0;entryDy=0;" edge="1" parent="1" source="qaXm5NW-_RKSkuAVvWhl-1" target="qaXm5NW-_RKSkuAVvWhl-2">
          <mxGeometry relative="1" as="geometry" />
        </mxCell>
        <mxCell id="qaXm5NW-_RKSkuAVvWhl-9" style="edgeStyle=orthogonalEdgeStyle;rounded=0;orthogonalLoop=1;jettySize=auto;html=1;entryX=0;entryY=0.5;entryDx=0;entryDy=0;" edge="1" parent="1" source="qaXm5NW-_RKSkuAVvWhl-1" target="qaXm5NW-_RKSkuAVvWhl-4">
          <mxGeometry relative="1" as="geometry" />
        </mxCell>
        <mxCell id="qaXm5NW-_RKSkuAVvWhl-10" style="edgeStyle=orthogonalEdgeStyle;rounded=0;orthogonalLoop=1;jettySize=auto;html=1;entryX=0;entryY=0.5;entryDx=0;entryDy=0;" edge="1" parent="1" source="qaXm5NW-_RKSkuAVvWhl-1" target="qaXm5NW-_RKSkuAVvWhl-3">
          <mxGeometry relative="1" as="geometry" />
        </mxCell>
        <mxCell id="qaXm5NW-_RKSkuAVvWhl-12" style="edgeStyle=orthogonalEdgeStyle;rounded=0;orthogonalLoop=1;jettySize=auto;html=1;entryX=0;entryY=0.5;entryDx=0;entryDy=0;" edge="1" parent="1" source="qaXm5NW-_RKSkuAVvWhl-1" target="qaXm5NW-_RKSkuAVvWhl-11">
          <mxGeometry relative="1" as="geometry" />
        </mxCell>
        <mxCell id="qaXm5NW-_RKSkuAVvWhl-1" value="User" style="shape=umlActor;verticalLabelPosition=bottom;verticalAlign=top;html=1;outlineConnect=0;" vertex="1" parent="1">
          <mxGeometry x="60" y="170" width="30" height="60" as="geometry" />
        </mxCell>
        <mxCell id="qaXm5NW-_RKSkuAVvWhl-2" value="Track eaten dishes/calories via voice input" style="rounded=0;whiteSpace=wrap;html=1;" vertex="1" parent="1">
          <mxGeometry x="160" y="80" width="200" height="40" as="geometry" />
        </mxCell>
        <mxCell id="qaXm5NW-_RKSkuAVvWhl-3" value="View calories consumed on different days via pager" style="rounded=0;whiteSpace=wrap;html=1;" vertex="1" parent="1">
          <mxGeometry x="160" y="180" width="200" height="40" as="geometry" />
        </mxCell>
        <mxCell id="qaXm5NW-_RKSkuAVvWhl-4" value="Edit days dishes" style="rounded=0;whiteSpace=wrap;html=1;" vertex="1" parent="1">
          <mxGeometry x="160" y="130" width="200" height="40" as="geometry" />
        </mxCell>
        <mxCell id="qaXm5NW-_RKSkuAVvWhl-11" value="Be called by an AI assistant in agreed upon hours or at particular time.&lt;div&gt;&lt;br&gt;&lt;/div&gt;&lt;div&gt;ConnectionService / Telecom API&lt;/div&gt;" style="rounded=0;whiteSpace=wrap;html=1;" vertex="1" parent="1">
          <mxGeometry x="160" y="230" width="200" height="80" as="geometry" />
        </mxCell>
      </root>
    </mxGraphModel>
  </diagram>
  <diagram id="tjgbHu1j1IO3pIeArPvt" name="general-architecture">
    <mxGraphModel dx="1188" dy="626" grid="1" gridSize="10" guides="1" tooltips="1" connect="1" arrows="1" fold="1" page="1" pageScale="1" pageWidth="827" pageHeight="1169" math="0" shadow="0">
      <root>
        <mxCell id="0" />
        <mxCell id="1" parent="0" />
        <mxCell id="tql1aPGgKLQq9V6oPPoP-1" style="edgeStyle=orthogonalEdgeStyle;rounded=0;orthogonalLoop=1;jettySize=auto;html=1;exitX=0;exitY=0.5;exitDx=0;exitDy=0;entryX=1;entryY=0.25;entryDx=0;entryDy=0;" edge="1" parent="1" source="tql1aPGgKLQq9V6oPPoP-3" target="tql1aPGgKLQq9V6oPPoP-15">
          <mxGeometry relative="1" as="geometry" />
        </mxCell>
        <mxCell id="tql1aPGgKLQq9V6oPPoP-2" style="edgeStyle=orthogonalEdgeStyle;rounded=0;orthogonalLoop=1;jettySize=auto;html=1;exitX=0;exitY=0.5;exitDx=0;exitDy=0;entryX=0.5;entryY=0;entryDx=0;entryDy=0;" edge="1" parent="1" source="tql1aPGgKLQq9V6oPPoP-3" target="tql1aPGgKLQq9V6oPPoP-9">
          <mxGeometry relative="1" as="geometry">
            <mxPoint x="479.7586206896551" y="135.27586206896558" as="targetPoint" />
          </mxGeometry>
        </mxCell>
        <mxCell id="tql1aPGgKLQq9V6oPPoP-3" value="app" style="rounded=0;whiteSpace=wrap;html=1;" vertex="1" parent="1">
          <mxGeometry x="480" y="105" width="120" height="60" as="geometry" />
        </mxCell>
        <mxCell id="tql1aPGgKLQq9V6oPPoP-4" style="edgeStyle=orthogonalEdgeStyle;rounded=0;orthogonalLoop=1;jettySize=auto;html=1;exitX=0;exitY=0.5;exitDx=0;exitDy=0;entryX=0.5;entryY=1;entryDx=0;entryDy=0;" edge="1" parent="1" source="tql1aPGgKLQq9V6oPPoP-5" target="tql1aPGgKLQq9V6oPPoP-6">
          <mxGeometry relative="1" as="geometry" />
        </mxCell>
        <mxCell id="tql1aPGgKLQq9V6oPPoP-5" value="calorie:storage" style="rounded=0;whiteSpace=wrap;html=1;" vertex="1" parent="1">
          <mxGeometry x="190" y="525" width="120" height="60" as="geometry" />
        </mxCell>
        <mxCell id="tql1aPGgKLQq9V6oPPoP-6" value="calorie:model" style="rounded=0;whiteSpace=wrap;html=1;" vertex="1" parent="1">
          <mxGeometry x="10" y="345" width="120" height="60" as="geometry" />
        </mxCell>
        <mxCell id="tql1aPGgKLQq9V6oPPoP-7" style="edgeStyle=orthogonalEdgeStyle;rounded=0;orthogonalLoop=1;jettySize=auto;html=1;exitX=0.5;exitY=1;exitDx=0;exitDy=0;entryX=0.5;entryY=0;entryDx=0;entryDy=0;" edge="1" parent="1" source="tql1aPGgKLQq9V6oPPoP-9" target="tql1aPGgKLQq9V6oPPoP-15">
          <mxGeometry relative="1" as="geometry" />
        </mxCell>
        <mxCell id="tql1aPGgKLQq9V6oPPoP-8" style="edgeStyle=orthogonalEdgeStyle;rounded=0;orthogonalLoop=1;jettySize=auto;html=1;exitX=0;exitY=0.5;exitDx=0;exitDy=0;entryX=0.5;entryY=0;entryDx=0;entryDy=0;" edge="1" parent="1" source="tql1aPGgKLQq9V6oPPoP-9" target="tql1aPGgKLQq9V6oPPoP-6">
          <mxGeometry relative="1" as="geometry" />
        </mxCell>
        <mxCell id="tql1aPGgKLQq9V6oPPoP-9" value="calorie:ui" style="rounded=0;whiteSpace=wrap;html=1;" vertex="1" parent="1">
          <mxGeometry x="190" y="255" width="120" height="60" as="geometry" />
        </mxCell>
        <mxCell id="tql1aPGgKLQq9V6oPPoP-10" style="edgeStyle=orthogonalEdgeStyle;rounded=0;orthogonalLoop=1;jettySize=auto;html=1;exitX=0.5;exitY=1;exitDx=0;exitDy=0;entryX=0.5;entryY=0;entryDx=0;entryDy=0;" edge="1" parent="1" source="tql1aPGgKLQq9V6oPPoP-12" target="tql1aPGgKLQq9V6oPPoP-5">
          <mxGeometry relative="1" as="geometry" />
        </mxCell>
        <mxCell id="tql1aPGgKLQq9V6oPPoP-11" style="edgeStyle=orthogonalEdgeStyle;rounded=0;orthogonalLoop=1;jettySize=auto;html=1;exitX=0;exitY=0.5;exitDx=0;exitDy=0;entryX=0.5;entryY=1;entryDx=0;entryDy=0;" edge="1" parent="1" source="tql1aPGgKLQq9V6oPPoP-12" target="tql1aPGgKLQq9V6oPPoP-6">
          <mxGeometry relative="1" as="geometry" />
        </mxCell>
        <mxCell id="tql1aPGgKLQq9V6oPPoP-12" value="calorie:data" style="rounded=0;whiteSpace=wrap;html=1;" vertex="1" parent="1">
          <mxGeometry x="190" y="435" width="120" height="60" as="geometry" />
        </mxCell>
        <mxCell id="tql1aPGgKLQq9V6oPPoP-13" style="edgeStyle=orthogonalEdgeStyle;rounded=0;orthogonalLoop=1;jettySize=auto;html=1;exitX=0.5;exitY=1;exitDx=0;exitDy=0;entryX=0.5;entryY=0;entryDx=0;entryDy=0;" edge="1" parent="1" source="tql1aPGgKLQq9V6oPPoP-15" target="tql1aPGgKLQq9V6oPPoP-12">
          <mxGeometry relative="1" as="geometry" />
        </mxCell>
        <mxCell id="tql1aPGgKLQq9V6oPPoP-14" style="edgeStyle=orthogonalEdgeStyle;rounded=0;orthogonalLoop=1;jettySize=auto;html=1;exitX=0;exitY=0.5;exitDx=0;exitDy=0;entryX=1;entryY=0.5;entryDx=0;entryDy=0;" edge="1" parent="1" source="tql1aPGgKLQq9V6oPPoP-15" target="tql1aPGgKLQq9V6oPPoP-6">
          <mxGeometry relative="1" as="geometry" />
        </mxCell>
        <mxCell id="bYEbqim4BYeo3NLfMd7O-2" style="edgeStyle=orthogonalEdgeStyle;rounded=0;orthogonalLoop=1;jettySize=auto;html=1;exitX=1;exitY=0.75;exitDx=0;exitDy=0;entryX=0.5;entryY=0;entryDx=0;entryDy=0;" edge="1" parent="1" source="tql1aPGgKLQq9V6oPPoP-15" target="bYEbqim4BYeo3NLfMd7O-1">
          <mxGeometry relative="1" as="geometry" />
        </mxCell>
        <mxCell id="tql1aPGgKLQq9V6oPPoP-15" value="calorie:domain" style="rounded=0;whiteSpace=wrap;html=1;" vertex="1" parent="1">
          <mxGeometry x="190" y="345" width="120" height="60" as="geometry" />
        </mxCell>
        <mxCell id="bYEbqim4BYeo3NLfMd7O-3" style="edgeStyle=orthogonalEdgeStyle;rounded=0;orthogonalLoop=1;jettySize=auto;html=1;exitX=0;exitY=0.5;exitDx=0;exitDy=0;entryX=1;entryY=0.5;entryDx=0;entryDy=0;" edge="1" parent="1" source="bYEbqim4BYeo3NLfMd7O-1" target="tql1aPGgKLQq9V6oPPoP-12">
          <mxGeometry relative="1" as="geometry" />
        </mxCell>
        <mxCell id="bYEbqim4BYeo3NLfMd7O-1" value="calorie:caller" style="rounded=0;whiteSpace=wrap;html=1;" vertex="1" parent="1">
          <mxGeometry x="380" y="435" width="120" height="60" as="geometry" />
        </mxCell>
      </root>
    </mxGraphModel>
  </diagram>
  <diagram id="n5rtlhoHSXyPGEzr7GqR" name="calorie-arch">
    <mxGraphModel dx="2015" dy="626" grid="1" gridSize="10" guides="1" tooltips="1" connect="1" arrows="1" fold="1" page="1" pageScale="1" pageWidth="827" pageHeight="1169" math="0" shadow="0">
      <root>
        <mxCell id="0" />
        <mxCell id="1" parent="0" />
        <mxCell id="iD8q2Ngl5nhgPQJ0ivGi-1" style="edgeStyle=orthogonalEdgeStyle;rounded=0;orthogonalLoop=1;jettySize=auto;html=1;exitX=0.5;exitY=1;exitDx=0;exitDy=0;entryX=0.5;entryY=0;entryDx=0;entryDy=0;" parent="1" source="iD8q2Ngl5nhgPQJ0ivGi-2" target="iD8q2Ngl5nhgPQJ0ivGi-12" edge="1">
          <mxGeometry relative="1" as="geometry" />
        </mxCell>
        <mxCell id="IB8QoxIUkL5-A1D3NvcY-14" style="edgeStyle=orthogonalEdgeStyle;rounded=0;orthogonalLoop=1;jettySize=auto;html=1;exitX=1;exitY=0.25;exitDx=0;exitDy=0;" parent="1" source="iD8q2Ngl5nhgPQJ0ivGi-2" target="IB8QoxIUkL5-A1D3NvcY-13" edge="1">
          <mxGeometry relative="1" as="geometry" />
        </mxCell>
        <mxCell id="iD8q2Ngl5nhgPQJ0ivGi-2" value=":calories:data" style="swimlane;whiteSpace=wrap;html=1;" parent="1" vertex="1">
          <mxGeometry x="530" y="1080" width="880" height="440" as="geometry" />
        </mxCell>
        <mxCell id="iD8q2Ngl5nhgPQJ0ivGi-4" value="CaloriesManager" style="swimlane;whiteSpace=wrap;html=1;fillColor=#d5e8d4;strokeColor=#82b366;rounded=0;shadow=0;glass=0;align=center;verticalAlign=middle;swimlaneFillColor=#FBFBFB;fontFamily=Helvetica;fontSize=12;fontColor=default;fontStyle=1;gradientColor=none;" parent="iD8q2Ngl5nhgPQJ0ivGi-2" vertex="1">
          <mxGeometry x="10" y="40" width="510" height="190" as="geometry" />
        </mxCell>
        <mxCell id="iD8q2Ngl5nhgPQJ0ivGi-5" value="saveProduct(product: Product)&lt;div&gt;saveConsumedCalories(date: LocalDate, consumedProducts: List&amp;lt;ConsumedProduct&amp;gt;)&lt;span style=&quot;background-color: transparent; color: light-dark(rgb(0, 0, 0), rgb(255, 255, 255));&quot;&gt;)&lt;/span&gt;&lt;/div&gt;&lt;div&gt;observeConsumedCalories(range: DateRange): Flow&amp;lt;DayCalories&amp;gt;&lt;/div&gt;&lt;div&gt;observeAvailableProducts(): Flow&amp;lt;List&amp;lt;Product&amp;gt;&amp;gt;&lt;/div&gt;&lt;div&gt;searchProduct(query: String): Flow&amp;lt;List&amp;lt;Product&amp;gt;&amp;gt;&lt;/div&gt;" style="text;html=1;align=left;verticalAlign=top;resizable=0;points=[];autosize=1;strokeColor=none;fillColor=none;fontFamily=Helvetica;fontSize=12;fontColor=default;fontStyle=0;" parent="iD8q2Ngl5nhgPQJ0ivGi-4" vertex="1">
          <mxGeometry x="10" y="30" width="500" height="90" as="geometry" />
        </mxCell>
        <mxCell id="iD8q2Ngl5nhgPQJ0ivGi-12" value=":calories:storage" style="swimlane;whiteSpace=wrap;html=1;swimlaneLine=1;" parent="1" vertex="1">
          <mxGeometry x="530" y="1580" width="1410" height="670" as="geometry" />
        </mxCell>
        <mxCell id="iD8q2Ngl5nhgPQJ0ivGi-13" value="CaloriesStorage" style="swimlane;whiteSpace=wrap;html=1;fillColor=#d5e8d4;strokeColor=#82b366;gradientColor=none;rounded=0;swimlaneLine=1;glass=0;shadow=0;swimlaneFillColor=#FBFBFB;" parent="iD8q2Ngl5nhgPQJ0ivGi-12" vertex="1">
          <mxGeometry x="10" y="40" width="440" height="180" as="geometry" />
        </mxCell>
        <mxCell id="iD8q2Ngl5nhgPQJ0ivGi-14" value="saveProduct(product: Product)&lt;div&gt;saveConsumedCalories(products: List&amp;lt;ConsumedProduct&amp;gt;)&lt;/div&gt;&lt;div&gt;observeConsumedCalories(range: DateRange): Flow&amp;lt;List&amp;lt;DayCalories&amp;gt;&amp;gt;&lt;/div&gt;&lt;div&gt;observeAvailableProducts(): Flow&amp;lt;List&amp;lt;Product&amp;gt;&amp;gt;&lt;/div&gt;&lt;div&gt;searchProduct(query: String): Flow&amp;lt;List&amp;lt;Product&amp;gt;&amp;gt;&lt;/div&gt;" style="text;html=1;align=left;verticalAlign=middle;resizable=0;points=[];autosize=1;strokeColor=none;fillColor=none;" parent="iD8q2Ngl5nhgPQJ0ivGi-13" vertex="1">
          <mxGeometry x="10" y="35" width="420" height="90" as="geometry" />
        </mxCell>
        <mxCell id="iD8q2Ngl5nhgPQJ0ivGi-16" style="edgeStyle=orthogonalEdgeStyle;rounded=0;orthogonalLoop=1;jettySize=auto;html=1;exitX=0.5;exitY=1;exitDx=0;exitDy=0;entryX=0.5;entryY=0;entryDx=0;entryDy=0;" parent="iD8q2Ngl5nhgPQJ0ivGi-12" source="iD8q2Ngl5nhgPQJ0ivGi-13" target="iD8q2Ngl5nhgPQJ0ivGi-21" edge="1">
          <mxGeometry relative="1" as="geometry">
            <mxPoint x="135" y="345" as="sourcePoint" />
          </mxGeometry>
        </mxCell>
        <mxCell id="iD8q2Ngl5nhgPQJ0ivGi-18" style="edgeStyle=orthogonalEdgeStyle;rounded=0;orthogonalLoop=1;jettySize=auto;html=1;exitX=0.5;exitY=1;exitDx=0;exitDy=0;entryX=0.5;entryY=0;entryDx=0;entryDy=0;" parent="iD8q2Ngl5nhgPQJ0ivGi-12" source="iD8q2Ngl5nhgPQJ0ivGi-21" target="iD8q2Ngl5nhgPQJ0ivGi-22" edge="1">
          <mxGeometry relative="1" as="geometry" />
        </mxCell>
        <mxCell id="iD8q2Ngl5nhgPQJ0ivGi-19" style="edgeStyle=orthogonalEdgeStyle;rounded=0;orthogonalLoop=1;jettySize=auto;html=1;exitX=0.5;exitY=1;exitDx=0;exitDy=0;entryX=0.5;entryY=0;entryDx=0;entryDy=0;" parent="iD8q2Ngl5nhgPQJ0ivGi-12" source="iD8q2Ngl5nhgPQJ0ivGi-21" target="iD8q2Ngl5nhgPQJ0ivGi-23" edge="1">
          <mxGeometry relative="1" as="geometry" />
        </mxCell>
        <mxCell id="iD8q2Ngl5nhgPQJ0ivGi-20" style="edgeStyle=orthogonalEdgeStyle;rounded=0;orthogonalLoop=1;jettySize=auto;html=1;exitX=0.5;exitY=1;exitDx=0;exitDy=0;entryX=0.5;entryY=0;entryDx=0;entryDy=0;" parent="iD8q2Ngl5nhgPQJ0ivGi-12" source="iD8q2Ngl5nhgPQJ0ivGi-21" target="iD8q2Ngl5nhgPQJ0ivGi-29" edge="1">
          <mxGeometry relative="1" as="geometry" />
        </mxCell>
        <mxCell id="iD8q2Ngl5nhgPQJ0ivGi-21" value="RoomDatabase" style="swimlane;whiteSpace=wrap;html=1;rounded=0;swimlaneLine=1;glass=0;shadow=0;swimlaneFillColor=#FBFBFB;" parent="iD8q2Ngl5nhgPQJ0ivGi-12" vertex="1">
          <mxGeometry x="144" y="390" width="250" height="85" as="geometry" />
        </mxCell>
        <mxCell id="iD8q2Ngl5nhgPQJ0ivGi-22" value="ProductDao" style="swimlane;whiteSpace=wrap;html=1;rounded=0;swimlaneLine=1;glass=0;shadow=0;swimlaneFillColor=#FBFBFB;" parent="iD8q2Ngl5nhgPQJ0ivGi-12" vertex="1">
          <mxGeometry x="10" y="520" width="250" height="85" as="geometry" />
        </mxCell>
        <mxCell id="iD8q2Ngl5nhgPQJ0ivGi-23" value="MealDao" style="swimlane;whiteSpace=wrap;html=1;rounded=0;swimlaneLine=1;glass=0;shadow=0;swimlaneFillColor=#FBFBFB;" parent="iD8q2Ngl5nhgPQJ0ivGi-12" vertex="1">
          <mxGeometry x="280" y="520" width="250" height="85" as="geometry" />
        </mxCell>
        <mxCell id="iD8q2Ngl5nhgPQJ0ivGi-29" value="ConsumedProductDao" style="swimlane;whiteSpace=wrap;html=1;rounded=0;swimlaneLine=1;glass=0;shadow=0;swimlaneFillColor=#FBFBFB;" parent="iD8q2Ngl5nhgPQJ0ivGi-12" vertex="1">
          <mxGeometry x="550" y="520" width="250" height="85" as="geometry" />
        </mxCell>
        <mxCell id="iD8q2Ngl5nhgPQJ0ivGi-30" value="ProductEntity" style="swimlane;whiteSpace=wrap;html=1;rounded=0;swimlaneLine=1;glass=0;shadow=0;swimlaneFillColor=#FBFBFB;" parent="iD8q2Ngl5nhgPQJ0ivGi-12" vertex="1">
          <mxGeometry x="807" y="40" width="250" height="180" as="geometry" />
        </mxCell>
        <mxCell id="iD8q2Ngl5nhgPQJ0ivGi-31" value="id:String&lt;div&gt;&lt;span style=&quot;background-color: transparent; color: light-dark(rgb(0, 0, 0), rgb(255, 255, 255));&quot;&gt;name:String&lt;/span&gt;&lt;/div&gt;&lt;div&gt;carbohydrates: Double&lt;/div&gt;&lt;div&gt;fat: Double&lt;/div&gt;&lt;div&gt;protein: Double&lt;/div&gt;&lt;div&gt;kcal: Double&lt;/div&gt;" style="text;html=1;align=left;verticalAlign=top;whiteSpace=wrap;rounded=0;" parent="iD8q2Ngl5nhgPQJ0ivGi-30" vertex="1">
          <mxGeometry x="10" y="30" width="230" height="150" as="geometry" />
        </mxCell>
        <mxCell id="iD8q2Ngl5nhgPQJ0ivGi-32" value="MealEntity" style="swimlane;whiteSpace=wrap;html=1;rounded=0;swimlaneLine=1;glass=0;shadow=0;swimlaneFillColor=#FBFBFB;" parent="iD8q2Ngl5nhgPQJ0ivGi-12" vertex="1">
          <mxGeometry x="1080" y="40" width="250" height="180" as="geometry" />
        </mxCell>
        <mxCell id="iD8q2Ngl5nhgPQJ0ivGi-33" value="&lt;div&gt;&lt;span style=&quot;background-color: transparent; color: light-dark(rgb(0, 0, 0), rgb(255, 255, 255));&quot;&gt;id: String&lt;/span&gt;&lt;/div&gt;&lt;div&gt;&lt;span style=&quot;background-color: transparent; color: light-dark(rgb(0, 0, 0), rgb(255, 255, 255));&quot;&gt;name: String&lt;/span&gt;&lt;/div&gt;&lt;div&gt;order: Int&lt;/div&gt;" style="text;html=1;align=left;verticalAlign=top;whiteSpace=wrap;rounded=0;" parent="iD8q2Ngl5nhgPQJ0ivGi-32" vertex="1">
          <mxGeometry x="10" y="30" width="230" height="150" as="geometry" />
        </mxCell>
        <mxCell id="iD8q2Ngl5nhgPQJ0ivGi-34" value="ConsumedProduct" style="swimlane;whiteSpace=wrap;html=1;rounded=0;swimlaneLine=1;glass=0;shadow=0;swimlaneFillColor=#FBFBFB;" parent="iD8q2Ngl5nhgPQJ0ivGi-12" vertex="1">
          <mxGeometry x="807" y="245" width="250" height="180" as="geometry" />
        </mxCell>
        <mxCell id="iD8q2Ngl5nhgPQJ0ivGi-35" value="id:String&lt;div&gt;mealId: String&lt;/div&gt;&lt;div&gt;productId: String&lt;/div&gt;&lt;div&gt;date: LocalDate&lt;/div&gt;&lt;div&gt;amountGrams: Double&lt;/div&gt;&lt;div&gt;&lt;div&gt;carbohydrates: Double&lt;/div&gt;&lt;div&gt;fat: Double&lt;/div&gt;&lt;div&gt;protein: Double&lt;/div&gt;&lt;div&gt;kcal: Double&lt;/div&gt;&lt;/div&gt;" style="text;html=1;align=left;verticalAlign=top;whiteSpace=wrap;rounded=0;" parent="iD8q2Ngl5nhgPQJ0ivGi-34" vertex="1">
          <mxGeometry x="10" y="30" width="230" height="150" as="geometry" />
        </mxCell>
        <mxCell id="iD8q2Ngl5nhgPQJ0ivGi-36" style="edgeStyle=orthogonalEdgeStyle;rounded=0;orthogonalLoop=1;jettySize=auto;html=1;exitX=0.5;exitY=1;exitDx=0;exitDy=0;entryX=0.5;entryY=0;entryDx=0;entryDy=0;" parent="1" source="iD8q2Ngl5nhgPQJ0ivGi-37" target="iD8q2Ngl5nhgPQJ0ivGi-2" edge="1">
          <mxGeometry relative="1" as="geometry" />
        </mxCell>
        <mxCell id="IB8QoxIUkL5-A1D3NvcY-24" style="edgeStyle=orthogonalEdgeStyle;rounded=0;orthogonalLoop=1;jettySize=auto;html=1;exitX=1;exitY=0.5;exitDx=0;exitDy=0;entryX=0.5;entryY=0;entryDx=0;entryDy=0;" parent="1" source="iD8q2Ngl5nhgPQJ0ivGi-37" target="IB8QoxIUkL5-A1D3NvcY-21" edge="1">
          <mxGeometry relative="1" as="geometry" />
        </mxCell>
        <mxCell id="iD8q2Ngl5nhgPQJ0ivGi-37" value=":calories:domain" style="swimlane;whiteSpace=wrap;html=1;" parent="1" vertex="1">
          <mxGeometry x="530" y="610" width="880" height="440" as="geometry" />
        </mxCell>
        <mxCell id="iD8q2Ngl5nhgPQJ0ivGi-38" value="SaveDishUseCase" style="swimlane;whiteSpace=wrap;html=1;rounded=0;swimlaneLine=1;glass=0;shadow=0;swimlaneFillColor=#FBFBFB;fillColor=#647687;fontColor=#ffffff;strokeColor=#314354;" parent="iD8q2Ngl5nhgPQJ0ivGi-37" vertex="1">
          <mxGeometry x="540" y="200" width="250" height="60" as="geometry" />
        </mxCell>
        <mxCell id="iD8q2Ngl5nhgPQJ0ivGi-39" value="SaveProductUseCase" style="swimlane;whiteSpace=wrap;html=1;rounded=0;swimlaneLine=1;glass=0;shadow=0;swimlaneFillColor=#FBFBFB;" parent="iD8q2Ngl5nhgPQJ0ivGi-37" vertex="1">
          <mxGeometry x="275" y="40" width="250" height="60" as="geometry" />
        </mxCell>
        <mxCell id="iD8q2Ngl5nhgPQJ0ivGi-40" value="ObserveCaloriesUseCase" style="swimlane;whiteSpace=wrap;html=1;rounded=0;swimlaneLine=1;glass=0;shadow=0;swimlaneFillColor=#FBFBFB;" parent="iD8q2Ngl5nhgPQJ0ivGi-37" vertex="1">
          <mxGeometry x="10" y="120" width="250" height="60" as="geometry" />
        </mxCell>
        <mxCell id="iD8q2Ngl5nhgPQJ0ivGi-41" value="VoiceAssistantCall" style="swimlane;whiteSpace=wrap;html=1;rounded=0;swimlaneLine=1;glass=0;shadow=0;swimlaneFillColor=#FBFBFB;" parent="iD8q2Ngl5nhgPQJ0ivGi-37" vertex="1">
          <mxGeometry x="275" y="310" width="250" height="60" as="geometry" />
        </mxCell>
        <mxCell id="iD8q2Ngl5nhgPQJ0ivGi-42" value="SaveConsumedCalories" style="swimlane;whiteSpace=wrap;html=1;rounded=0;swimlaneLine=1;glass=0;shadow=0;swimlaneFillColor=#FBFBFB;" parent="iD8q2Ngl5nhgPQJ0ivGi-37" vertex="1">
          <mxGeometry x="540" y="40" width="250" height="60" as="geometry" />
        </mxCell>
        <mxCell id="IB8QoxIUkL5-A1D3NvcY-6" value="add product or dish to meal/day" style="text;html=1;align=center;verticalAlign=middle;whiteSpace=wrap;rounded=0;" parent="iD8q2Ngl5nhgPQJ0ivGi-42" vertex="1">
          <mxGeometry y="25" width="250" height="35" as="geometry" />
        </mxCell>
        <mxCell id="IB8QoxIUkL5-A1D3NvcY-1" value="ObserveAvailableProducts" style="swimlane;whiteSpace=wrap;html=1;rounded=0;swimlaneLine=1;glass=0;shadow=0;swimlaneFillColor=#FBFBFB;" parent="iD8q2Ngl5nhgPQJ0ivGi-37" vertex="1">
          <mxGeometry x="10" y="40" width="250" height="60" as="geometry" />
        </mxCell>
        <mxCell id="IB8QoxIUkL5-A1D3NvcY-2" value="ObserveAvailableDishes" style="swimlane;whiteSpace=wrap;html=1;rounded=0;swimlaneLine=1;glass=0;shadow=0;swimlaneFillColor=#FBFBFB;fillColor=#647687;strokeColor=#314354;fontColor=#ffffff;" parent="iD8q2Ngl5nhgPQJ0ivGi-37" vertex="1">
          <mxGeometry x="10" y="200" width="250" height="60" as="geometry" />
        </mxCell>
        <mxCell id="IB8QoxIUkL5-A1D3NvcY-3" value="SearchDish" style="swimlane;whiteSpace=wrap;html=1;rounded=0;swimlaneLine=1;glass=0;shadow=0;swimlaneFillColor=#FBFBFB;fillColor=#647687;strokeColor=#314354;fontColor=#ffffff;" parent="iD8q2Ngl5nhgPQJ0ivGi-37" vertex="1">
          <mxGeometry x="275" y="200" width="250" height="60" as="geometry" />
        </mxCell>
        <mxCell id="IB8QoxIUkL5-A1D3NvcY-4" value="SearchProduct" style="swimlane;whiteSpace=wrap;html=1;rounded=0;swimlaneLine=1;glass=0;shadow=0;swimlaneFillColor=#FBFBFB;" parent="iD8q2Ngl5nhgPQJ0ivGi-37" vertex="1">
          <mxGeometry x="275" y="120" width="250" height="60" as="geometry" />
        </mxCell>
        <mxCell id="pBO_gcr8D0kZEjPxQ_8R-2" value="SaveVoiceAssistantConfig" style="swimlane;whiteSpace=wrap;html=1;rounded=0;swimlaneLine=1;glass=0;shadow=0;swimlaneFillColor=#FBFBFB;" parent="iD8q2Ngl5nhgPQJ0ivGi-37" vertex="1">
          <mxGeometry x="10" y="310" width="250" height="60" as="geometry" />
        </mxCell>
        <mxCell id="IB8QoxIUkL5-A1D3NvcY-26" style="edgeStyle=orthogonalEdgeStyle;rounded=0;orthogonalLoop=1;jettySize=auto;html=1;exitX=0.5;exitY=1;exitDx=0;exitDy=0;entryX=0.5;entryY=0;entryDx=0;entryDy=0;" parent="1" source="iD8q2Ngl5nhgPQJ0ivGi-48" target="iD8q2Ngl5nhgPQJ0ivGi-37" edge="1">
          <mxGeometry relative="1" as="geometry" />
        </mxCell>
        <mxCell id="iD8q2Ngl5nhgPQJ0ivGi-48" value=":calories:ui" style="swimlane;whiteSpace=wrap;html=1;" parent="1" vertex="1">
          <mxGeometry x="530" y="280" width="880" height="290" as="geometry" />
        </mxCell>
        <mxCell id="iD8q2Ngl5nhgPQJ0ivGi-49" value="DayCaloriesScreen" style="swimlane;whiteSpace=wrap;html=1;rounded=0;swimlaneLine=1;glass=0;shadow=0;swimlaneFillColor=#FBFBFB;" parent="iD8q2Ngl5nhgPQJ0ivGi-48" vertex="1">
          <mxGeometry x="20" y="40" width="250" height="60" as="geometry" />
        </mxCell>
        <mxCell id="iD8q2Ngl5nhgPQJ0ivGi-50" value="EditDishScreen" style="swimlane;whiteSpace=wrap;html=1;rounded=0;swimlaneLine=1;glass=0;shadow=0;swimlaneFillColor=#FBFBFB;fillColor=#647687;strokeColor=#314354;fontColor=#ffffff;" parent="iD8q2Ngl5nhgPQJ0ivGi-48" vertex="1">
          <mxGeometry x="290" y="40" width="250" height="60" as="geometry" />
        </mxCell>
        <mxCell id="iD8q2Ngl5nhgPQJ0ivGi-51" value="EditConsumedCaloriesScreen" style="swimlane;whiteSpace=wrap;html=1;rounded=0;swimlaneLine=1;glass=0;shadow=0;swimlaneFillColor=#FBFBFB;" parent="iD8q2Ngl5nhgPQJ0ivGi-48" vertex="1">
          <mxGeometry x="20" y="115" width="250" height="60" as="geometry" />
        </mxCell>
        <mxCell id="IB8QoxIUkL5-A1D3NvcY-5" value="add calories to meal/day" style="text;html=1;align=center;verticalAlign=middle;whiteSpace=wrap;rounded=0;" parent="iD8q2Ngl5nhgPQJ0ivGi-51" vertex="1">
          <mxGeometry y="25" width="250" height="35" as="geometry" />
        </mxCell>
        <mxCell id="M2yf3n2D1TolwEpuGVDP-1" value="EditProductScreen" style="swimlane;whiteSpace=wrap;html=1;rounded=0;swimlaneLine=1;glass=0;shadow=0;swimlaneFillColor=#FBFBFB;" parent="iD8q2Ngl5nhgPQJ0ivGi-48" vertex="1">
          <mxGeometry x="560" y="40" width="250" height="60" as="geometry" />
        </mxCell>
        <mxCell id="M2yf3n2D1TolwEpuGVDP-2" value="VoiceAssistantConfigScreen" style="swimlane;whiteSpace=wrap;html=1;rounded=0;swimlaneLine=1;glass=0;shadow=0;swimlaneFillColor=#FBFBFB;" parent="iD8q2Ngl5nhgPQJ0ivGi-48" vertex="1">
          <mxGeometry x="290" y="115" width="250" height="60" as="geometry" />
        </mxCell>
        <mxCell id="iD8q2Ngl5nhgPQJ0ivGi-53" value=":calories:model" style="swimlane;whiteSpace=wrap;html=1;" parent="1" vertex="1">
          <mxGeometry x="-230" y="610" width="600" height="670" as="geometry" />
        </mxCell>
        <mxCell id="iD8q2Ngl5nhgPQJ0ivGi-54" value="DateRange" style="swimlane;whiteSpace=wrap;html=1;rounded=0;swimlaneLine=1;glass=0;shadow=0;swimlaneFillColor=#FBFBFB;startSize=23;" parent="iD8q2Ngl5nhgPQJ0ivGi-53" vertex="1">
          <mxGeometry x="20" y="40" width="250" height="180" as="geometry" />
        </mxCell>
        <mxCell id="iD8q2Ngl5nhgPQJ0ivGi-55" value="start: LocalDate&lt;div&gt;end: LocalDate&lt;/div&gt;" style="text;html=1;align=left;verticalAlign=top;whiteSpace=wrap;rounded=0;" parent="iD8q2Ngl5nhgPQJ0ivGi-54" vertex="1">
          <mxGeometry x="10" y="30" width="230" height="150" as="geometry" />
        </mxCell>
        <mxCell id="iD8q2Ngl5nhgPQJ0ivGi-56" value="Product" style="swimlane;whiteSpace=wrap;html=1;rounded=0;swimlaneLine=1;glass=0;shadow=0;swimlaneFillColor=#FBFBFB;" parent="iD8q2Ngl5nhgPQJ0ivGi-53" vertex="1">
          <mxGeometry x="300" y="40" width="250" height="180" as="geometry" />
        </mxCell>
        <mxCell id="iD8q2Ngl5nhgPQJ0ivGi-57" value="id:String&lt;div&gt;&lt;span style=&quot;background-color: transparent; color: light-dark(rgb(0, 0, 0), rgb(255, 255, 255));&quot;&gt;name:String&lt;/span&gt;&lt;/div&gt;&lt;div&gt;carbohydrates: Double&lt;/div&gt;&lt;div&gt;fat: Double&lt;/div&gt;&lt;div&gt;protein: Double&lt;/div&gt;&lt;div&gt;kcal: Double&lt;/div&gt;" style="text;html=1;align=left;verticalAlign=top;whiteSpace=wrap;rounded=0;" parent="iD8q2Ngl5nhgPQJ0ivGi-56" vertex="1">
          <mxGeometry x="10" y="30" width="230" height="150" as="geometry" />
        </mxCell>
        <mxCell id="iD8q2Ngl5nhgPQJ0ivGi-58" value="DayCalories" style="swimlane;whiteSpace=wrap;html=1;rounded=0;swimlaneLine=1;glass=0;shadow=0;swimlaneFillColor=#FBFBFB;" parent="iD8q2Ngl5nhgPQJ0ivGi-53" vertex="1">
          <mxGeometry x="20" y="240" width="250" height="180" as="geometry" />
        </mxCell>
        <mxCell id="iD8q2Ngl5nhgPQJ0ivGi-59" value="date: LocalDate&lt;div&gt;meals: List&amp;lt;ConsumedProduct&amp;gt;&lt;/div&gt;" style="text;html=1;align=left;verticalAlign=top;whiteSpace=wrap;rounded=0;" parent="iD8q2Ngl5nhgPQJ0ivGi-58" vertex="1">
          <mxGeometry x="10" y="30" width="230" height="150" as="geometry" />
        </mxCell>
        <mxCell id="IB8QoxIUkL5-A1D3NvcY-7" value="Meal" style="swimlane;whiteSpace=wrap;html=1;rounded=0;swimlaneLine=1;glass=0;shadow=0;swimlaneFillColor=#FBFBFB;" parent="iD8q2Ngl5nhgPQJ0ivGi-53" vertex="1">
          <mxGeometry x="300" y="240" width="250" height="180" as="geometry" />
        </mxCell>
        <mxCell id="IB8QoxIUkL5-A1D3NvcY-8" value="&lt;div&gt;&lt;span style=&quot;background-color: transparent; color: light-dark(rgb(0, 0, 0), rgb(255, 255, 255));&quot;&gt;id: String&lt;/span&gt;&lt;/div&gt;&lt;div&gt;&lt;span style=&quot;background-color: transparent; color: light-dark(rgb(0, 0, 0), rgb(255, 255, 255));&quot;&gt;n&lt;/span&gt;&lt;span style=&quot;background-color: transparent; color: light-dark(rgb(0, 0, 0), rgb(255, 255, 255));&quot;&gt;ame: String&lt;/span&gt;&lt;/div&gt;&lt;div&gt;order: Int&lt;/div&gt;&lt;div&gt;&lt;br&gt;&lt;/div&gt;" style="text;html=1;align=left;verticalAlign=top;whiteSpace=wrap;rounded=0;" parent="IB8QoxIUkL5-A1D3NvcY-7" vertex="1">
          <mxGeometry x="10" y="30" width="230" height="150" as="geometry" />
        </mxCell>
        <mxCell id="IB8QoxIUkL5-A1D3NvcY-17" value="ConsumedMeal" style="swimlane;whiteSpace=wrap;html=1;rounded=0;swimlaneLine=1;glass=0;shadow=0;swimlaneFillColor=#FBFBFB;" parent="iD8q2Ngl5nhgPQJ0ivGi-53" vertex="1">
          <mxGeometry x="20" y="440" width="250" height="180" as="geometry" />
        </mxCell>
        <mxCell id="IB8QoxIUkL5-A1D3NvcY-18" value="&lt;div&gt;meal: Meal&lt;/div&gt;&lt;div&gt;date: LocalDate&lt;/div&gt;&lt;div&gt;products: List&amp;lt;ConsumedProduct&amp;gt;&lt;/div&gt;" style="text;html=1;align=left;verticalAlign=top;whiteSpace=wrap;rounded=0;" parent="IB8QoxIUkL5-A1D3NvcY-17" vertex="1">
          <mxGeometry x="10" y="30" width="230" height="150" as="geometry" />
        </mxCell>
        <mxCell id="cIymGL80le8Na9bqtDOJ-1" value="ConsumedProduct" style="swimlane;whiteSpace=wrap;html=1;rounded=0;swimlaneLine=1;glass=0;shadow=0;swimlaneFillColor=#FBFBFB;" vertex="1" parent="iD8q2Ngl5nhgPQJ0ivGi-53">
          <mxGeometry x="300" y="440" width="250" height="200" as="geometry" />
        </mxCell>
        <mxCell id="cIymGL80le8Na9bqtDOJ-2" value="&lt;div&gt;id: String&lt;/div&gt;&lt;div&gt;mealId: String&lt;/div&gt;&lt;div&gt;&lt;span style=&quot;background-color: transparent; color: light-dark(rgb(0, 0, 0), rgb(255, 255, 255));&quot;&gt;name: String&lt;/span&gt;&lt;/div&gt;&lt;div&gt;order: Int&lt;/div&gt;&lt;div&gt;date: LocalDate&lt;/div&gt;&lt;div&gt;amountGrams: Double&lt;/div&gt;&lt;div&gt;product: Product&lt;/div&gt;&lt;div&gt;&lt;div&gt;carbohydrates: Double&lt;/div&gt;&lt;div&gt;fat: Double&lt;/div&gt;&lt;div&gt;protein: Double&lt;/div&gt;&lt;div&gt;kcal: Double&lt;/div&gt;&lt;/div&gt;" style="text;html=1;align=left;verticalAlign=top;whiteSpace=wrap;rounded=0;" vertex="1" parent="cIymGL80le8Na9bqtDOJ-1">
          <mxGeometry x="10" y="25" width="230" height="175" as="geometry" />
        </mxCell>
        <mxCell id="IB8QoxIUkL5-A1D3NvcY-13" value="Products - cached in DB. DB is SSOT" style="ellipse;shape=cloud;whiteSpace=wrap;html=1;" parent="1" vertex="1">
          <mxGeometry x="1470" y="1050" width="260" height="200" as="geometry" />
        </mxCell>
        <mxCell id="pBO_gcr8D0kZEjPxQ_8R-1" style="edgeStyle=orthogonalEdgeStyle;rounded=0;orthogonalLoop=1;jettySize=auto;html=1;exitX=0;exitY=0.5;exitDx=0;exitDy=0;entryX=1;entryY=0.5;entryDx=0;entryDy=0;" parent="1" source="IB8QoxIUkL5-A1D3NvcY-21" target="iD8q2Ngl5nhgPQJ0ivGi-2" edge="1">
          <mxGeometry relative="1" as="geometry" />
        </mxCell>
        <mxCell id="IB8QoxIUkL5-A1D3NvcY-21" value=":calories:assistant" style="swimlane;whiteSpace=wrap;html=1;" parent="1" vertex="1">
          <mxGeometry x="1820" y="1080" width="880" height="440" as="geometry" />
        </mxCell>
        <mxCell id="IB8QoxIUkL5-A1D3NvcY-22" value="CalorieAssitantManager" style="swimlane;whiteSpace=wrap;html=1;fillColor=#d5e8d4;strokeColor=#82b366;rounded=0;shadow=0;glass=0;align=center;verticalAlign=middle;swimlaneFillColor=#FBFBFB;fontFamily=Helvetica;fontSize=12;fontColor=default;fontStyle=1;gradientColor=none;" parent="IB8QoxIUkL5-A1D3NvcY-21" vertex="1">
          <mxGeometry x="10" y="40" width="400" height="190" as="geometry" />
        </mxCell>
        <mxCell id="IB8QoxIUkL5-A1D3NvcY-23" value="saveConfig()&lt;div&gt;callNow()&lt;/div&gt;" style="text;html=1;align=left;verticalAlign=top;resizable=0;points=[];autosize=1;strokeColor=none;fillColor=none;fontFamily=Helvetica;fontSize=12;fontColor=default;fontStyle=0;" parent="IB8QoxIUkL5-A1D3NvcY-22" vertex="1">
          <mxGeometry x="10" y="30" width="90" height="40" as="geometry" />
        </mxCell>
        <mxCell id="IB8QoxIUkL5-A1D3NvcY-27" value="Regular calls - ConnectionService / Telecom API&lt;div&gt;Work Manager&lt;/div&gt;" style="rounded=0;whiteSpace=wrap;html=1;" parent="IB8QoxIUkL5-A1D3NvcY-21" vertex="1">
          <mxGeometry x="10" y="240" width="400" height="60" as="geometry" />
        </mxCell>
        <mxCell id="pBO_gcr8D0kZEjPxQ_8R-3" value="Result of a call is - meals are saved with proper products" style="rounded=0;whiteSpace=wrap;html=1;" parent="IB8QoxIUkL5-A1D3NvcY-21" vertex="1">
          <mxGeometry x="10" y="310" width="400" height="60" as="geometry" />
        </mxCell>
      </root>
    </mxGraphModel>
  </diagram>
</mxfile>
